<?xml version="1.0" encoding="UTF-8" standalone="no"?>
<!DOCTYPE svg PUBLIC "-//W3C//DTD SVG 1.1//EN" "http://www.w3.org/Graphics/SVG/1.1/DTD/svg11.dtd">
<svg width="100%" height="100%" viewBox="0 0 128 128" version="1.1" xmlns="http://www.w3.org/2000/svg" xmlns:xlink="http://www.w3.org/1999/xlink" xml:space="preserve" xmlns:serif="http://www.serif.com/" style="fill-rule:evenodd;clip-rule:evenodd;stroke-linecap:round;stroke-linejoin:round;stroke-miterlimit:1.5;">
    <g transform="matrix(6.512161,0,0,6.701931,7.455052,17.559857)">
        <path d="M2.123,4.611L2.123,9.298L3.704,9.298L5.948,11.542" style="fill:url(#_Linear1);stroke:url(#_Linear2);stroke-width:0.88px;"/>
    </g>
    <g transform="matrix(6.512161,0,0,-6.701931,7.455052,110.440143)">
        <path d="M2.123,4.611L2.123,9.298L3.704,9.298L5.948,11.542" style="fill:url(#_Linear3);stroke:url(#_Linear4);stroke-width:0.88px;"/>
    </g>
    <g transform="matrix(6.512161,0,0,6.701931,7.455052,17.559857)">
        <path d="M5.948,11.542L5.948,2.317" style="fill:none;stroke:url(#_Linear5);stroke-width:0.88px;"/>
    </g>
    <g transform="matrix(6.512161,0,0,6.701931,8.702046,2.465418)">
        <path d="M7.036,8.389L8.318,6.381L9.385,7.448L10.776,8.554L11.739,7.458L12.614,6.43L13.724,7.554L14.915,8.746" style="fill-opacity:0;stroke:rgb(141,165,243);stroke-width:0.88px;"/>
    </g>
    <g transform="matrix(6.512161,0,0,6.701931,9.592756,24.282077)">
        <path d="M7.036,8.389C7.463,7.72 7.744,6.354 8.318,6.381C8.893,6.407 10.125,8.428 10.839,8.437C11.552,8.445 12.182,6.375 12.921,6.409C13.659,6.442 14.143,7.974 14.915,8.746" style="fill-opacity:0;stroke:rgb(252,115,115);stroke-width:0.88px;"/>
    </g>
    <circle cx="64" cy="64" r="64" style="fill:none;stroke:url(#_Linear6);stroke-width:5.83px;"/>
    <defs>
        <linearGradient id="_Linear1" x1="0" y1="0" x2="1" y2="0" gradientUnits="userSpaceOnUse" gradientTransform="matrix(19.655535,0,0,19.098974,-1.144789,6.929368)"><stop offset="0" style="stop-color:black;stop-opacity:0"/><stop offset="1" style="stop-color:rgb(77,77,77);stop-opacity:0"/></linearGradient>
        <linearGradient id="_Linear2" x1="0" y1="0" x2="1" y2="0" gradientUnits="userSpaceOnUse" gradientTransform="matrix(3.825467,0,0,9.225289,2.122885,6.929368)"><stop offset="0" style="stop-color:rgb(141,165,243);stop-opacity:1"/><stop offset="1" style="stop-color:rgb(252,115,115);stop-opacity:1"/></linearGradient>
        <linearGradient id="_Linear3" x1="0" y1="0" x2="1" y2="0" gradientUnits="userSpaceOnUse" gradientTransform="matrix(19.655535,0,0,-19.098974,-1.144789,6.929368)"><stop offset="0" style="stop-color:black;stop-opacity:0"/><stop offset="1" style="stop-color:rgb(77,77,77);stop-opacity:0"/></linearGradient>
        <linearGradient id="_Linear4" x1="0" y1="0" x2="1" y2="0" gradientUnits="userSpaceOnUse" gradientTransform="matrix(3.825467,0,0,6.931434,2.122885,8.076296)"><stop offset="0" style="stop-color:rgb(141,165,243);stop-opacity:1"/><stop offset="1" style="stop-color:rgb(252,115,115);stop-opacity:1"/></linearGradient>
        <linearGradient id="_Linear5" x1="0" y1="0" x2="1" y2="0" gradientUnits="userSpaceOnUse" gradientTransform="matrix(3.825467,0,0,9.225289,2.122885,6.929368)"><stop offset="0" style="stop-color:rgb(141,165,243);stop-opacity:1"/><stop offset="1" style="stop-color:rgb(252,115,115);stop-opacity:1"/></linearGradient>
        <linearGradient id="_Linear6" x1="0" y1="0" x2="1" y2="0" gradientUnits="userSpaceOnUse" gradientTransform="matrix(128,0,0,128,0,64)"><stop offset="0" style="stop-color:rgb(141,165,243);stop-opacity:1"/><stop offset="1" style="stop-color:rgb(252,115,115);stop-opacity:1"/></linearGradient>
    </defs>
</svg>
